<mxfile host="65bd71144e">
    <diagram id="yFync2UMTC5bewxASssJ" name="Page-1">
        <mxGraphModel dx="1138" dy="724" grid="1" gridSize="10" guides="1" tooltips="1" connect="1" arrows="1" fold="1" page="1" pageScale="1" pageWidth="1169" pageHeight="827" math="0" shadow="1">
            <root>
                <mxCell id="0"/>
                <mxCell id="1" parent="0"/>
                <mxCell id="56" style="edgeStyle=none;sketch=1;fillWeight=4;hachureGap=8;hachureAngle=45;orthogonalLoop=1;jettySize=auto;html=1;fontFamily=Helvetica;fontSize=13;startArrow=none;startFill=0;strokeColor=#6c8ebf;strokeWidth=2;fillColor=#dae8fc;" edge="1" parent="1" source="53" target="10">
                    <mxGeometry relative="1" as="geometry"/>
                </mxCell>
                <mxCell id="18" style="edgeStyle=none;sketch=1;fillWeight=4;hachureGap=8;hachureAngle=45;orthogonalLoop=1;jettySize=auto;html=1;fontSize=14;strokeColor=#6c8ebf;strokeWidth=2;fillColor=#dae8fc;entryX=0.25;entryY=0;entryDx=0;entryDy=0;startArrow=classic;startFill=1;" edge="1" parent="1" source="2" target="17">
                    <mxGeometry relative="1" as="geometry"/>
                </mxCell>
                <mxCell id="2" value="设备网关" style="rounded=1;whiteSpace=wrap;html=1;strokeWidth=2;fillWeight=4;hachureGap=8;hachureAngle=45;fillColor=#dae8fc;sketch=1;strokeColor=#6c8ebf;fontStyle=1;fontSize=14;" parent="1" vertex="1">
                    <mxGeometry x="350" y="190" width="100" height="50" as="geometry"/>
                </mxCell>
                <mxCell id="19" style="edgeStyle=none;sketch=1;fillWeight=4;hachureGap=8;hachureAngle=45;orthogonalLoop=1;jettySize=auto;html=1;entryX=0.75;entryY=0;entryDx=0;entryDy=0;fontSize=14;strokeColor=#6c8ebf;strokeWidth=2;fillColor=#dae8fc;startArrow=classic;startFill=1;" edge="1" parent="1" source="10" target="17">
                    <mxGeometry relative="1" as="geometry"/>
                </mxCell>
                <mxCell id="10" value="设备网关" style="rounded=1;whiteSpace=wrap;html=1;strokeWidth=2;fillWeight=4;hachureGap=8;hachureAngle=45;fillColor=#dae8fc;sketch=1;strokeColor=#6c8ebf;fontStyle=1;fontSize=14;" parent="1" vertex="1">
                    <mxGeometry x="670" y="190" width="100" height="50" as="geometry"/>
                </mxCell>
                <mxCell id="26" style="edgeStyle=none;sketch=1;fillWeight=4;hachureGap=8;hachureAngle=45;orthogonalLoop=1;jettySize=auto;html=1;fontSize=14;strokeColor=#6c8ebf;strokeWidth=2;fillColor=#dae8fc;startArrow=classic;startFill=1;" edge="1" parent="1" source="17" target="23">
                    <mxGeometry relative="1" as="geometry"/>
                </mxCell>
                <mxCell id="17" value="Nginx" style="rounded=1;whiteSpace=wrap;html=1;strokeWidth=2;fillWeight=4;hachureGap=8;hachureAngle=45;fillColor=none;sketch=1;fontStyle=1;fontSize=14;" vertex="1" parent="1">
                    <mxGeometry x="510" y="300" width="100" height="50" as="geometry"/>
                </mxCell>
                <mxCell id="28" style="edgeStyle=none;sketch=1;fillWeight=4;hachureGap=8;hachureAngle=45;orthogonalLoop=1;jettySize=auto;html=1;fontSize=14;strokeColor=#6c8ebf;strokeWidth=2;fillColor=#dae8fc;" edge="1" parent="1" source="23" target="27">
                    <mxGeometry relative="1" as="geometry"/>
                </mxCell>
                <mxCell id="23" value="服务器集群" style="swimlane;fontSize=14;strokeWidth=2;collapsible=0;rounded=1;fillColor=none;sketch=1;fillWeight=4;hachureGap=8;hachureAngle=45;" vertex="1" parent="1">
                    <mxGeometry x="405" y="400" width="310" height="200" as="geometry"/>
                </mxCell>
                <mxCell id="20" value="服务器" style="rounded=1;whiteSpace=wrap;html=1;strokeWidth=2;fillWeight=4;hachureGap=8;hachureAngle=45;fillColor=#fff2cc;sketch=1;strokeColor=#d6b656;fontStyle=1;fontSize=14;" vertex="1" parent="23">
                    <mxGeometry x="40" y="51" width="100" height="50" as="geometry"/>
                </mxCell>
                <mxCell id="24" value="服务器" style="rounded=1;whiteSpace=wrap;html=1;strokeWidth=2;fillWeight=4;hachureGap=8;hachureAngle=45;fillColor=#fff2cc;sketch=1;strokeColor=#d6b656;fontStyle=1;fontSize=14;" vertex="1" parent="23">
                    <mxGeometry x="180" y="51" width="100" height="50" as="geometry"/>
                </mxCell>
                <mxCell id="25" value="服务器" style="rounded=1;whiteSpace=wrap;html=1;strokeWidth=2;fillWeight=4;hachureGap=8;hachureAngle=45;fillColor=#fff2cc;sketch=1;strokeColor=#d6b656;fontStyle=1;fontSize=14;" vertex="1" parent="23">
                    <mxGeometry x="105" y="121" width="100" height="50" as="geometry"/>
                </mxCell>
                <mxCell id="27" value="数据库" style="shape=cylinder3;whiteSpace=wrap;html=1;boundedLbl=1;backgroundOutline=1;size=15;fontSize=14;strokeWidth=2;rounded=1;fontStyle=1;strokeColor=#82b366;fillColor=#d5e8d4;sketch=1;fillWeight=4;hachureGap=8;hachureAngle=45;" vertex="1" parent="1">
                    <mxGeometry x="210" y="456" width="85" height="90" as="geometry"/>
                </mxCell>
                <mxCell id="29" value="&lt;font style=&quot;font-size: 16px&quot;&gt;&lt;b&gt;服务器和设备网关使用 WebSocket 通讯&amp;nbsp;&lt;br&gt;&lt;br&gt;Nginx upstream 到服务器&lt;br&gt;&lt;/b&gt;&lt;/font&gt;" style="text;html=1;strokeColor=none;fillColor=none;align=left;verticalAlign=middle;whiteSpace=wrap;rounded=0;fontSize=14;" vertex="1" parent="1">
                    <mxGeometry x="640" y="292.5" width="330" height="65" as="geometry"/>
                </mxCell>
                <mxCell id="38" style="edgeStyle=none;sketch=1;fillWeight=4;hachureGap=8;hachureAngle=45;orthogonalLoop=1;jettySize=auto;html=1;entryX=0.5;entryY=1;entryDx=0;entryDy=0;fontSize=13;startArrow=none;startFill=0;strokeColor=#6c8ebf;strokeWidth=2;fillColor=#dae8fc;" edge="1" parent="1" source="33" target="23">
                    <mxGeometry relative="1" as="geometry"/>
                </mxCell>
                <mxCell id="33" value="Nginx" style="rounded=1;whiteSpace=wrap;html=1;strokeWidth=2;fillWeight=4;hachureGap=8;hachureAngle=45;fillColor=#f5f5f5;sketch=1;strokeColor=#666666;fontStyle=1;fontSize=14;fontColor=#333333;" vertex="1" parent="1">
                    <mxGeometry x="445" y="640" width="230" height="40" as="geometry"/>
                </mxCell>
                <mxCell id="36" style="edgeStyle=none;sketch=1;fillWeight=4;hachureGap=8;hachureAngle=45;orthogonalLoop=1;jettySize=auto;html=1;entryX=0.25;entryY=1;entryDx=0;entryDy=0;fontSize=13;startArrow=none;startFill=0;strokeColor=#6c8ebf;strokeWidth=2;fillColor=#dae8fc;" edge="1" parent="1" source="34" target="33">
                    <mxGeometry relative="1" as="geometry"/>
                </mxCell>
                <mxCell id="34" value="手机" style="rounded=1;whiteSpace=wrap;html=1;strokeWidth=2;fillWeight=4;hachureGap=8;hachureAngle=45;sketch=1;fontStyle=1;fontSize=14;fillColor=#bac8d3;strokeColor=#23445d;" vertex="1" parent="1">
                    <mxGeometry x="440" y="720" width="100" height="50" as="geometry"/>
                </mxCell>
                <mxCell id="37" style="edgeStyle=none;sketch=1;fillWeight=4;hachureGap=8;hachureAngle=45;orthogonalLoop=1;jettySize=auto;html=1;entryX=0.75;entryY=1;entryDx=0;entryDy=0;fontSize=13;startArrow=none;startFill=0;strokeColor=#6c8ebf;strokeWidth=2;fillColor=#dae8fc;" edge="1" parent="1" source="35" target="33">
                    <mxGeometry relative="1" as="geometry"/>
                </mxCell>
                <mxCell id="35" value="浏览器" style="rounded=1;whiteSpace=wrap;html=1;strokeWidth=2;fillWeight=4;hachureGap=8;hachureAngle=45;fillColor=#bac8d3;sketch=1;strokeColor=#23445d;fontStyle=1;fontSize=14;" vertex="1" parent="1">
                    <mxGeometry x="583" y="720" width="100" height="50" as="geometry"/>
                </mxCell>
                <mxCell id="47" style="edgeStyle=none;sketch=1;fillWeight=4;hachureGap=8;hachureAngle=45;orthogonalLoop=1;jettySize=auto;html=1;fontFamily=Helvetica;fontSize=13;startArrow=none;startFill=0;strokeColor=#6c8ebf;strokeWidth=2;fillColor=#dae8fc;" edge="1" parent="1" source="46" target="2">
                    <mxGeometry relative="1" as="geometry"/>
                </mxCell>
                <mxCell id="46" value="设备" style="verticalLabelPosition=middle;verticalAlign=middle;html=1;shape=mxgraph.basic.drop;sketch=1;fontSize=13;strokeWidth=1;rounded=1;fontStyle=1;strokeColor=#d79b00;fillColor=#ffe6cc;fillWeight=4;hachureGap=8;hachureAngle=45;labelPosition=center;align=center;spacingTop=8;fontFamily=Helvetica;flipH=0;" vertex="1" parent="1">
                    <mxGeometry x="374" y="70" width="50" height="70" as="geometry"/>
                </mxCell>
                <mxCell id="50" style="edgeStyle=none;sketch=1;fillWeight=4;hachureGap=8;hachureAngle=45;orthogonalLoop=1;jettySize=auto;html=1;entryX=0.25;entryY=0;entryDx=0;entryDy=0;fontFamily=Helvetica;fontSize=13;startArrow=none;startFill=0;strokeColor=#6c8ebf;strokeWidth=2;fillColor=#dae8fc;" edge="1" parent="1" source="48" target="2">
                    <mxGeometry relative="1" as="geometry"/>
                </mxCell>
                <mxCell id="48" value="设备" style="verticalLabelPosition=middle;verticalAlign=middle;html=1;shape=mxgraph.basic.drop;sketch=1;fontSize=13;strokeWidth=1;rounded=1;fontStyle=1;strokeColor=#d79b00;fillColor=#ffe6cc;fillWeight=4;hachureGap=8;hachureAngle=45;labelPosition=center;align=center;spacingTop=8;fontFamily=Helvetica;flipH=0;shadow=0;" vertex="1" parent="1">
                    <mxGeometry x="301" y="100" width="50" height="70" as="geometry"/>
                </mxCell>
                <mxCell id="51" style="edgeStyle=none;sketch=1;fillWeight=4;hachureGap=8;hachureAngle=45;orthogonalLoop=1;jettySize=auto;html=1;fontFamily=Helvetica;fontSize=13;startArrow=none;startFill=0;strokeColor=#6c8ebf;strokeWidth=2;fillColor=#dae8fc;" edge="1" parent="1" source="49" target="2">
                    <mxGeometry relative="1" as="geometry"/>
                </mxCell>
                <mxCell id="49" value="设备" style="verticalLabelPosition=middle;verticalAlign=middle;html=1;shape=mxgraph.basic.drop;sketch=1;fontSize=13;strokeWidth=1;rounded=1;fontStyle=1;strokeColor=#d79b00;fillColor=#ffe6cc;fillWeight=4;hachureGap=8;hachureAngle=45;labelPosition=center;align=center;spacingTop=8;fontFamily=Helvetica;flipH=0;" vertex="1" parent="1">
                    <mxGeometry x="446" y="100" width="50" height="70" as="geometry"/>
                </mxCell>
                <mxCell id="55" style="edgeStyle=none;sketch=1;fillWeight=4;hachureGap=8;hachureAngle=45;orthogonalLoop=1;jettySize=auto;html=1;fontFamily=Helvetica;fontSize=13;startArrow=none;startFill=0;strokeColor=#6c8ebf;strokeWidth=2;fillColor=#dae8fc;" edge="1" parent="1" source="52" target="10">
                    <mxGeometry relative="1" as="geometry"/>
                </mxCell>
                <mxCell id="52" value="设备" style="verticalLabelPosition=middle;verticalAlign=middle;html=1;shape=mxgraph.basic.drop;sketch=1;fontSize=13;strokeWidth=1;rounded=1;fontStyle=1;strokeColor=#d79b00;fillColor=#ffe6cc;fillWeight=4;hachureGap=8;hachureAngle=45;labelPosition=center;align=center;spacingTop=8;fontFamily=Helvetica;flipH=0;" vertex="1" parent="1">
                    <mxGeometry x="695.5" y="70" width="50" height="70" as="geometry"/>
                </mxCell>
                <mxCell id="53" value="设备" style="verticalLabelPosition=middle;verticalAlign=middle;html=1;shape=mxgraph.basic.drop;sketch=1;fontSize=13;strokeWidth=1;rounded=1;fontStyle=1;strokeColor=#d79b00;fillColor=#ffe6cc;fillWeight=4;hachureGap=8;hachureAngle=45;labelPosition=center;align=center;spacingTop=8;fontFamily=Helvetica;flipH=0;" vertex="1" parent="1">
                    <mxGeometry x="622.5" y="100" width="50" height="70" as="geometry"/>
                </mxCell>
                <mxCell id="57" style="edgeStyle=none;sketch=1;fillWeight=4;hachureGap=8;hachureAngle=45;orthogonalLoop=1;jettySize=auto;html=1;fontFamily=Helvetica;fontSize=13;startArrow=none;startFill=0;strokeColor=#6c8ebf;strokeWidth=2;fillColor=#dae8fc;" edge="1" parent="1" source="54" target="10">
                    <mxGeometry relative="1" as="geometry"/>
                </mxCell>
                <mxCell id="54" value="设备" style="verticalLabelPosition=middle;verticalAlign=middle;html=1;shape=mxgraph.basic.drop;sketch=1;fontSize=13;strokeWidth=1;rounded=1;fontStyle=1;strokeColor=#d79b00;fillColor=#ffe6cc;fillWeight=4;hachureGap=8;hachureAngle=45;labelPosition=center;align=center;spacingTop=8;fontFamily=Helvetica;flipH=0;" vertex="1" parent="1">
                    <mxGeometry x="767.5" y="100" width="50" height="70" as="geometry"/>
                </mxCell>
            </root>
        </mxGraphModel>
    </diagram>
</mxfile>
